# xmcd
# 
# Track frame offsets:
#     150
#     35662
#     62745
#     94502
#     117200
#     145885
# 
# Disc length: 2317
# 
# Revision: 2
# Processed by: cddbd v1.5.2PL0 Copyright (c) Steve Scherf et al.
# Submitted via: BonkEnc v1.0.15
# 
DISCID=4d090b06
DTITLE=Freddie Hubbard - Super Blue
DYEAR=1978
DGENRE=Jazz
TTITLE0=Super Blue
TTITLE1=To Her Ladyship
TTITLE2=Take It To The Ozone
TTITLE3=The Gospel Truth
TTITLE4=The Surest Things Can Change
TTITLE5=Theme For Kareem
EXTD=YEAR: 1978
EXTT0=
EXTT1=
EXTT2=
EXTT3=
EXTT4=
EXTT5=
PLAYORDER=
